<mxfile host="app.diagrams.net" modified="2024-05-02T01:15:11.650Z" agent="Mozilla/5.0 (Macintosh; Intel Mac OS X 10_15_7) AppleWebKit/537.36 (KHTML, like Gecko) Chrome/124.0.0.0 Safari/537.36" etag="zrTsV69u_nsPn_CNa9vW" version="24.2.5" type="github">
  <diagram name="Page-1" id="thYT6xE8J8f5esjXuO9X">
    <mxGraphModel dx="734" dy="492" grid="1" gridSize="10" guides="1" tooltips="1" connect="1" arrows="1" fold="1" page="1" pageScale="1" pageWidth="827" pageHeight="1169" math="0" shadow="0">
      <root>
        <mxCell id="0" />
        <mxCell id="1" parent="0" />
        <mxCell id="Cvyu1O_MNy5X58WoxLN_-1" value="Base Architecture Code" style="verticalLabelPosition=bottom;html=1;verticalAlign=top;align=center;strokeColor=none;fillColor=#00BEF2;shape=mxgraph.azure.github_code;pointerEvents=1;" vertex="1" parent="1">
          <mxGeometry x="420" y="190" width="50" height="50" as="geometry" />
        </mxCell>
        <mxCell id="Cvyu1O_MNy5X58WoxLN_-2" value="Global Repository" style="verticalLabelPosition=bottom;html=1;verticalAlign=top;align=center;strokeColor=none;fillColor=#00BEF2;shape=mxgraph.azure.github_code;pointerEvents=1;" vertex="1" parent="1">
          <mxGeometry x="210" y="190" width="50" height="50" as="geometry" />
        </mxCell>
        <mxCell id="Cvyu1O_MNy5X58WoxLN_-4" value="Terminal" style="fontColor=#0066CC;verticalAlign=top;verticalLabelPosition=bottom;labelPosition=center;align=center;html=1;outlineConnect=0;fillColor=#CCCCCC;strokeColor=#6881B3;gradientColor=none;gradientDirection=north;strokeWidth=2;shape=mxgraph.networks.terminal;" vertex="1" parent="1">
          <mxGeometry x="140" y="400" width="80" height="65" as="geometry" />
        </mxCell>
      </root>
    </mxGraphModel>
  </diagram>
</mxfile>
